<?xml version="1.0" standalone="no"?>
<!DOCTYPE svg PUBLIC "-//W3C//DTD SVG 20010904//EN"
 "http://www.w3.org/TR/2001/REC-SVG-20010904/DTD/svg10.dtd">
<svg version="1.0" xmlns="http://www.w3.org/2000/svg"
 width="1200.000000pt" height="1200.000000pt" viewBox="0 0 1200.000000 1200.000000"
 preserveAspectRatio="xMidYMid meet">
<metadata>
Created by potrace 1.11, written by Peter Selinger 2001-2013
</metadata>
<g transform="translate(0.000000,1200.000000) scale(0.100000,-0.100000)"
fill="#000000" stroke="none">
<path d="M1133 11993 l-1133 -3 0 -5995 0 -5995 5995 0 5995 0 0 5995 0 5995
-4023 0 c-2213 0 -4401 2 -4863 3 -461 2 -1349 2 -1971 0z m8282 -5458 c549
-64 952 -321 1246 -796 28 -45 47 -85 42 -89 -17 -17 -853 -550 -862 -550 -5
0 -21 21 -37 48 -98 171 -235 304 -377 367 -123 54 -344 73 -472 40 -243 -62
-377 -231 -376 -476 1 -163 42 -261 159 -371 120 -113 243 -178 707 -378 618
-264 912 -438 1161 -685 316 -314 447 -672 431 -1180 -10 -321 -77 -551 -232
-786 -250 -383 -677 -619 -1270 -705 -147 -21 -539 -24 -690 -5 -461 58 -825
199 -1150 445 -105 79 -295 271 -370 374 -82 113 -197 304 -187 314 4 4 210
125 456 268 l449 259 59 -87 c199 -290 409 -460 676 -542 210 -65 536 -66 725
-1 308 106 462 344 403 623 -43 201 -180 333 -511 493 -82 40 -283 130 -445
200 -326 141 -466 208 -615 297 -413 245 -664 531 -784 893 -63 192 -86 369
-78 614 8 253 50 420 160 635 216 423 650 706 1196 781 134 18 429 18 586 0z
m-2898 -2077 c-3 -2251 0 -2121 -68 -2388 -132 -512 -455 -862 -939 -1019
-417 -135 -946 -131 -1354 9 -426 147 -767 447 -974 857 l-31 61 22 15 c39 25
887 537 890 537 2 0 34 -51 71 -114 130 -218 244 -338 381 -401 94 -44 154
-55 294 -55 285 0 455 105 532 328 50 145 49 96 49 2220 l0 1982 565 0 566 0
-4 -2032z"/>
</g>
</svg>
